<?xml version="1.0" encoding="utf-8"?>
<!-- Generator: Adobe Illustrator 17.1.0, SVG Export Plug-In . SVG Version: 6.00 Build 0)  -->
<!DOCTYPE svg PUBLIC "-//W3C//DTD SVG 1.1//EN" "http://www.w3.org/Graphics/SVG/1.1/DTD/svg11.dtd">
<svg version="1.1" xmlns="http://www.w3.org/2000/svg" xmlns:xlink="http://www.w3.org/1999/xlink" x="0px" y="0px"
	 viewBox="0 33 397.5 258.3" enable-background="new 0 33 397.5 258.3" xml:space="preserve">
<g id="Layer_1" display="none">
	<path display="inline" fill="#0E354C" d="M78.5,254.8v-229H55.2v231.5c0,12.7-5.3,19.2-15.5,19.2c-9.8,0-15.1-6.5-15.1-19.2V25.8H0
		v229c0,27.8,16.8,46.6,39.3,46.6C61.3,301.4,78.5,282.6,78.5,254.8z"/>
	<path display="inline" fill="#0E354C" d="M125.5,298.1V25.8h-24.9v272.4H125.5z"/>
	<path display="inline" fill="#0E354C" d="M214.3,0h-13.9l-71.2,324.3h14.3L214.3,0z"/>
	<path display="inline" fill="#0E354C" d="M297.7,254.8v-229h-23.3v231.5c0,12.7-5.3,19.2-15.5,19.2c-9.8,0-15.1-6.5-15.1-19.2V25.8
		h-24.5v229c0,27.8,16.8,46.6,39.3,46.6C280.5,301.4,297.7,282.6,297.7,254.8z"/>
	<path display="inline" fill="#0E354C" d="M396.7,298.1L369.3,157l28.2-131.3h-22.9l-20.4,108l-18.8-108h-24.1l27,138.2l-29,134.1
		h23.3l20.4-105.9l19.2,105.9H396.7z"/>
</g>
<g id="Layer_2">
	<g>
		<path fill="#0A354C" d="M52.5,263.9c-21.5,0-37.9-15.8-37.9-39.4V62.2h26.3v163.5c0,8.4,4.2,13.1,11.6,13.1
			c8.1,0,12.2-4.8,12.2-13.1V62.2h25.1v162.3C89.8,248.1,74,263.9,52.5,263.9z"/>
		<path fill="#0A354C" d="M108,261V62.2h26.3V261H108z"/>
		<path fill="#0A354C" d="M155.2,280.1h-14.6l52.8-236.6H208L155.2,280.1z"/>
		<path fill="#0A354C" d="M252.2,263.9c-21.5,0-37.9-15.8-37.9-39.4V62.2h26.3v163.5c0,8.4,4.2,13.1,11.6,13.1
			c8.1,0,12.2-4.8,12.2-13.1V62.2h25.1v162.3C289.5,248.1,273.7,263.9,252.2,263.9z"/>
		<path fill="#0A354C" d="M356.3,261l-15.5-69.5L324.1,261H299l27.2-98.8l-25.4-100h26.6l14.3,72.5l16.4-72.5h24.8l-26,95.8
			l25.7,103H356.3z"/>
	</g>
</g>
</svg>
